# xmcd CD database file
#
# Track frame offsets:
#	150
#	17130
#	35432
#	55785
#	70455
#	86007
#	105515
#	116812
#	136127
#	152252
#	170057
#	195337
#	217747
#	233612
#
# Disc length: 3345 seconds
#
# Revision: 1
# Processed by: cddbd v1.4PL0 Copyright (c) Steve Scherf et al.
# Submitted via: CDex 1.50beta10
#
DISCID=af0d0f0e
DTITLE=Pepe Ahlqvist - Back To The River
DYEAR=1992
DGENRE=Blues
TTITLE0=Good Old Music
TTITLE1=All That Western World
TTITLE2=Don't Leave Me Again
TTITLE3=Back To The River
TTITLE4=Eeny Meeny Miny Mo
TTITLE5=Ain't Doin' Too Bad
TTITLE6=Funky Rhythm
TTITLE7=A Change In Me
TTITLE8=My Girl
TTITLE9=Hard Time
TTITLE10=Thrill Is Gone
TTITLE11=Nobody's Fool
TTITLE12=Mercedes Benz
TTITLE13=Corinna
EXTD=YEAR: 1992
EXTT0=
EXTT1=
EXTT2=
EXTT3=
EXTT4=
EXTT5=
EXTT6=
EXTT7=
EXTT8=
EXTT9=
EXTT10=
EXTT11=
EXTT12=
EXTT13=
PLAYORDER=
